<?xml version="1.0" standalone="no"?><!DOCTYPE svg PUBLIC "-//W3C//DTD SVG 1.1//EN" "http://www.w3.org/Graphics/SVG/1.1/DTD/svg11.dtd"><svg t="1754782610235" class="icon" viewBox="0 0 1024 1024" version="1.1" xmlns="http://www.w3.org/2000/svg" p-id="31218" xmlns:xlink="http://www.w3.org/1999/xlink" width="16" height="16"><path d="M472.007111 901.575111a26.851556 26.851556 0 0 1-25.429333 28.103111H103.879111a26.851556 26.851556 0 0 1-25.429333-28.103111v-779.377778a26.851556 26.851556 0 0 1 25.429333-28.103111H446.577778a26.851556 26.851556 0 0 1 25.429333 28.103111v779.377778z m417.450667-750.933333v723.000889h-281.201778V150.471111h281.201778m30.776889-56.206222h-342.698667a26.851556 26.851556 0 0 0-25.429333 28.103111v779.377778a26.851556 26.851556 0 0 0 25.429333 28.103111h342.528a26.851556 26.851556 0 0 0 25.429333-28.103111v-779.377778a26.851556 26.851556 0 0 0-25.429333-28.103111z" fill="#13227a" p-id="31219"></path></svg>